# xmcd
#
# Track frame offsets:
#	150
#	13695
#	27190
#	41965
#	55437
#	69190
#	82707
#	95972
#	108440
#	120432
#	132817
#	145945
#
# Disc length: 2109 seconds
#
# Revision: 4
# Processed by: cddbd v1.5.2PL0 Copyright (c) Steve Scherf et al.
# Submitted via: audiograbber 1.83.01
#
DISCID=9e083b0c
DTITLE=Memphis Minnie - Good Biccuits
DYEAR=1992
DGENRE=Blues
TTITLE0=Memphis Minnie - My Butcher Man
TTITLE1=Memphis Minnie - My Strange Man
TTITLE2=Memphis Minnie - If You See My Rooster (Please Run Him Home)
TTITLE3=Memphis Minnie - Ice Man (Come On Up)
TTITLE4=Memphis Minnie - I'm A Bad Luck Woman
TTITLE5=Memphis Minnie - Good Morning
TTITLE6=Memphis Minnie - Black Cat Blues
TTITLE7=Memphis Minnie - Has Anyone Seen My Man
TTITLE8=Memphis Minnie - Keep On Eatin'
TTITLE9=Memphis Minnie - I Hate To See The Sun Go Down
TTITLE10=Memphis Minnie - I've Been Treated Wrong
TTITLE11=Memphis Minnie - Good Biccuits
EXTD=
EXTT0=
EXTT1=
EXTT2=
EXTT3=
EXTT4=
EXTT5=
EXTT6=
EXTT7=
EXTT8=
EXTT9=
EXTT10=
EXTT11=
PLAYORDER=
